<svg width="71" height="83" viewBox="0 0 71 83" fill="none" xmlns="http://www.w3.org/2000/svg">
<g clip-path="url(#clip0_24_12)">
<path d="M35.5159 23.4997C25.4364 23.4997 17.3063 31.7157 17.3063 41.9017C17.3063 52.0876 25.4364 60.3036 35.5159 60.3036C45.5953 60.3036 53.7255 52.0876 53.7255 41.9017C53.7255 31.7157 45.5953 23.4997 35.5159 23.4997ZM35.5159 53.8653C29.0022 53.8653 23.6772 48.5001 23.6772 41.9017C23.6772 35.3032 28.9864 29.938 35.5159 29.938C42.0453 29.938 47.3545 35.3032 47.3545 41.9017C47.3545 48.5001 42.0295 53.8653 35.5159 53.8653ZM58.7176 22.747C58.7176 25.1333 56.8159 27.0392 54.4703 27.0392C52.1089 27.0392 50.223 25.1173 50.223 22.747C50.223 20.3767 52.1248 18.4548 54.4703 18.4548C56.8159 18.4548 58.7176 20.3767 58.7176 22.747ZM70.7781 27.1032C70.5087 21.3536 69.2092 16.2606 65.0411 12.0646C60.8889 7.86846 55.8491 6.55518 50.1596 6.26689C44.2958 5.93057 26.7201 5.93057 20.8563 6.26689C15.1826 6.53916 10.1429 7.85244 5.97479 12.0485C1.80671 16.2446 0.523006 21.3376 0.237738 27.0872C-0.0950745 33.013 -0.0950745 50.7743 0.237738 56.7001C0.507158 62.4497 1.80671 67.5427 5.97479 71.7388C10.1429 75.9349 15.1668 77.2481 20.8563 77.5364C26.7201 77.8727 44.2958 77.8727 50.1596 77.5364C55.8491 77.2642 60.8889 75.9509 65.0411 71.7388C69.1933 67.5427 70.4929 62.4497 70.7781 56.7001C71.111 50.7743 71.111 33.029 70.7781 27.1032ZM63.2027 63.0583C61.9665 66.1974 59.5735 68.6157 56.4514 69.881C51.7761 71.7548 40.6824 71.3224 35.5159 71.3224C30.3493 71.3224 19.2397 71.7388 14.5804 69.881C11.4741 68.6317 9.08104 66.2134 7.82903 63.0583C5.97479 58.3337 6.40269 47.1228 6.40269 41.9017C6.40269 36.6806 5.99064 25.4536 7.82903 20.745C9.06519 17.606 11.4583 15.1876 14.5804 13.9224C19.2556 12.0485 30.3493 12.481 35.5159 12.481C40.6824 12.481 51.792 12.0645 56.4514 13.9224C59.5576 15.1716 61.9507 17.5899 63.2027 20.745C65.0569 25.4696 64.629 36.6806 64.629 41.9017C64.629 47.1228 65.0569 58.3497 63.2027 63.0583Z" fill="#D9D9D9"/>
</g>
<defs>
<clipPath id="clip0_24_12">
<rect width="71" height="82" fill="white" transform="translate(0 0.91748)"/>
</clipPath>
</defs>
</svg>
