<svg width="81" height="82" viewBox="0 0 81 82" fill="none" xmlns="http://www.w3.org/2000/svg">
<path d="M72.6738 24.9196C72.7252 25.6391 72.7252 26.3588 72.7252 27.0783C72.7252 49.0243 56.0216 74.3111 25.4924 74.3111C16.0869 74.3111 7.34964 71.587 0 66.8588C1.33634 67.0129 2.62111 67.0643 4.00887 67.0643C11.7695 67.0643 18.9137 64.4432 24.6186 59.9717C17.3204 59.8175 11.2043 55.0377 9.097 48.459C10.125 48.6131 11.1528 48.7159 12.2323 48.7159C13.7227 48.7159 15.2133 48.5102 16.6009 48.1507C8.99432 46.6086 3.2892 39.9273 3.2892 31.8581V31.6526C5.49914 32.8861 8.06915 33.657 10.7929 33.7597C6.32148 30.7787 3.39203 25.6906 3.39203 19.9342C3.39203 16.8505 4.21421 14.0237 5.65339 11.5567C13.8254 21.6303 26.1091 28.2088 39.883 28.9285C39.6261 27.695 39.4718 26.4102 39.4718 25.1253C39.4718 15.9767 46.8729 8.52441 56.0727 8.52441C60.8525 8.52441 65.1697 10.5288 68.2022 13.7668C71.9539 13.0473 75.5517 11.6595 78.7383 9.75792C77.5047 13.6127 74.8836 16.8506 71.4401 18.9063C74.7809 18.5467 78.0188 17.6214 80.9997 16.3366C78.7386 19.6258 75.9117 22.5553 72.6738 24.9196Z" fill="#D9D9D9"/>
</svg>
