<svg width="1920" height="242" viewBox="0 0 1920 242" fill="#ffffff" xmlns="http://www.w3.org/2000/svg">
<path d="M378.657 35.7624C169.445 56.9777 -104.625 104.722 -104.625 104.722L-105.449 176.863L1945.87 176.239L1947.62 23.4232C1947.62 23.4232 1435.48 136.913 1092.18 118.389C808.055 103.059 661.976 7.03225 378.657 35.7624Z" fill="white" fill-opacity="0.64"/>
<path d="M788.597 115.391C471.142 113.767 -22.6144 93.8313 -22.6144 93.8313L-23.2892 152.924L2481.42 176.173L2481.89 134.729C2481.89 134.729 2045.58 101.473 1758.05 95.1276C1376.26 86.7024 1170.73 117.347 788.597 115.391Z" fill="white" fill-opacity="0.58"/>
<path d="M519.621 77.3034C305.006 80.1924 -24.9871 147.977 -24.9871 147.977L-25.7238 212.48L1937.24 212.742L1938.61 93.5084C1938.61 93.5084 1470.02 168.346 1181.12 161.751C920.616 155.804 780.16 73.7962 519.621 77.3034Z" fill="white"/>
</svg>
