<svg width="1920" height="4558" viewBox="0 0 1920 4558" fill="none" xmlns="http://www.w3.org/2000/svg">
<path d="M-1506 64.7645C-1506 64.7645 -56.5015 399.841 934.931 399.841C2089.7 399.841 3827.5 0 3827.5 0L3878 4505.46C3878 4505.46 3075.96 4553.8 2016 4553.8C1506 4553.8 1358.5 4553 899.999 4553C477.554 4553 31.9237 4565.46 -341.501 4547C-616.143 4533.43 -901.64 4545.43 -995.501 4547C-1311.63 4552.3 -1428.9 4554.92 -1467.51 4556.22L-1467.5 4557.5C-1467.5 4557.5 -1505.42 4557.5 -1467.51 4556.22L-1506 64.7645Z" fill="url(#paint0_linear_32_8)" fill-opacity="0.64"/>
<defs>
<linearGradient id="paint0_linear_32_8" x1="1186" y1="8233.48" x2="1186" y2="-616.501" gradientUnits="userSpaceOnUse">
<stop stop-color="#4996C1"/>
<stop offset="1" stop-color="#4996C1" stop-opacity="0"/>
</linearGradient>
</defs>
</svg>
