<svg width="1920" height="473" viewBox="0 0 1920 473" fill="none" xmlns="http://www.w3.org/2000/svg">
<path d="M2100 306.5V414C2100 414 1838.38 314.487 1543.68 283.885C1121.58 240.053 933.493 339 509 339C458.222 339 389.706 341.835 280.5 328.496C94.1143 305.729 -151.5 223.5 -151.5 223.5L-56 115C-56 115 350.958 281.332 625.215 266.89C846.522 255.236 996.411 223.194 1216.98 202.098C1557.18 169.56 2100 306.5 2100 306.5Z" fill="white"/>
<path d="M1954.5 233.999V472.5C1954.5 472.5 1799.69 347.586 1505 314.499C1082.92 267.107 917.444 354.924 496.297 407.999C167 449.499 -190 319.316 -190 319.316V98.999C-190 98.999 222.05 276.719 496.297 261.104C717.596 248.503 1000 168.5 1226 105.499C1555.44 13.6634 1954.5 233.999 1954.5 233.999Z" fill="white" fill-opacity="0.05"/>
<path d="M2331 309.644L2297.28 420C2297.28 420 2008.42 326.297 1683.04 297.481C1217 256.208 811.5 390.5 348.5 361.5C197.045 352.014 -15.1277 297.481 -15.1277 297.481L-15.1278 0.5C-15.1278 0.5 428.33 248.827 731.139 235.228C975.485 224.254 1150.28 151.943 1393.81 132.078C1769.42 101.44 2331 309.644 2331 309.644Z" fill="white" fill-opacity="0.29"/>
</svg>
